<svg xmlns="http://www.w3.org/2000/svg" viewBox="0 0 470.85 109.48"><defs><style>.cls-1{fill:#f78e1e;}.cls-2,.cls-6{fill:#003d5b;}.cls-3{fill:#25b7c8;}.cls-4{fill:#fbad18;}.cls-5{fill:#2ed8c3;}.cls-6{fill-rule:evenodd;}.cls-7{fill:none;stroke:#023d5b;stroke-miterlimit:10;stroke-width:5px;}</style></defs><g id="Layer_2" data-name="Layer 2"><g id="Layer_1-2" data-name="Layer 1"><path class="cls-1" d="M267.34,49h-14V35a6,6,0,1,0-12,0V49h-14a6,6,0,1,0,0,12h14V75a6,6,0,0,0,12,0v-14h14a6,6,0,1,0,0-12Z"/><path class="cls-2" d="M1,22.67C-3.46,36.26,7.42,53,28.15,68.24,12.66,54.79,5.08,40.74,8.92,29c8-24.43,62.57-30.86,121.83-12.7,16.32,5,31.34,9.4,44.32,16.32-14.65-8.72-32.48-15.93-52.26-22C63.55-7.51,9-1.76,1,22.67"/><path class="cls-3" d="M67,79.91C45.25,67.49,32.66,51.55,36.07,38.53c2.41-9.15,12.36-15.62,26.73-18C44.65,22,30.63,29,27.84,39.56c-3.62,13.72,9.94,30.18,33.38,42.93L67,79.91"/><path class="cls-1" d="M64.77,47.24c3.79-11.62,25.63-15.62,57.9-5.41,14.61,4.61,27,11.07,35,18-7.86-5.79-18.72-11.17-31.23-15-28.18-8.62-54.11-6.2-57.9,5.41-1.82,5.58,1.78,12.26,9.14,18.65-9.85-7.26-15-15.2-12.91-21.66"/><path class="cls-4" d="M135.53,70.31c-2.83,7-18,5.39-30.82.94-6.66-2.31-12.24-5.56-15.79-8.9,3.52,2.82,9.51,5.18,14.23,6.71C116.06,73.21,129,71.9,130.84,68c3.66-7.58-8.28-12.17-14.79-14.2a46.91,46.91,0,0,1,11.44,4c7.77,4.46,9.43,9.07,8,12.53"/><path class="cls-5" d="M208.93,74.73C197.61,57.07,174,38.3,139.83,26.78c-29.75-10-64-15.21-85.92-13.77,21.12.71,44.52,4.09,73.22,13.06,36.15,11.29,61,30.78,72.55,48.91l4.2-.24a35.05,35.05,0,0,1,5.05,0"/><g id="Full_Color_Logo" data-name="Full Color Logo"><path class="cls-6" d="M18.12,98a2.81,2.81,0,0,0,2,.61c1.22,0,2.23-.49,2.23-1.17,0-1.22-3.27-3-8.69-3-7.65,0-12,3.33-12,7.41,0,3.89,3.75,7.57,12.11,7.57,5.38,0,8.28-1.74,8.28-2.62,0-.41-.56-.67-1.19-.67a3.32,3.32,0,0,0-1.37.36,12.25,12.25,0,0,1-4.5.83c-4.35,0-8-2.21-8-6.17,0-3.25,2.82-5,6.24-5A6.58,6.58,0,0,1,18.12,98"/><path class="cls-6" d="M47.36,101.59c-.3-3.82-4.35-7.12-11.74-7.12C28,94.47,23.7,97.8,23.7,102c0,4.91,5.5,7.47,11.85,7.47,7.13,0,12.14-3.33,11.81-7.88m-5.24,0a5.43,5.43,0,0,1-1.45,4.14,7.43,7.43,0,0,1-5.09,1.76c-1.45,0-5.27-.4-6.35-3.71a6.43,6.43,0,0,1-.3-2,5,5,0,0,1,3.79-5.15,9.54,9.54,0,0,1,2.79-.41,7.74,7.74,0,0,1,4.94,1.58A5.06,5.06,0,0,1,42.12,101.63Z"/><path class="cls-6" d="M55.41,95.18a1.42,1.42,0,0,0-1.19-.36H51.4c-.52,0-.82,0-.82.42v13.5c0,.36.22.41.82.41h2.34c.63,0,.74-.12.74-.45V98.88l12.77,9.85a1.33,1.33,0,0,0,1,.42H70.3c.56,0,.78-.06.78-.41V95.23c0-.33-.15-.42-.74-.4H68c-.6,0-.74.1-.74.4v9L55.41,95.18"/><path class="cls-6" d="M91.05,98a2.78,2.78,0,0,0,2,.61c1.23,0,2.23-.49,2.23-1.17,0-1.22-3.27-3-8.69-3-7.64,0-12,3.33-12,7.41,0,3.89,3.75,7.57,12.1,7.57,5.38,0,8.28-1.74,8.28-2.62,0-.41-.56-.67-1.19-.67a3.32,3.32,0,0,0-1.37.36,12.2,12.2,0,0,1-4.5.83c-4.35,0-8-2.21-8-6.17,0-3.25,2.82-5,6.24-5A6.61,6.61,0,0,1,91.05,98"/><path class="cls-6" d="M111.76,102.58c.6,0,.82,0,.82-.41v-1c0-.35-.22-.39-.78-.39h-7.42V96.61h8.8c.63,0,.89,0,.85-.45v-1c0-.39-.34-.39-.85-.39H100.26c-.67,0-.89.12-.89.57v13.31c0,.42.26.47.89.47h12.92c.63,0,.78-.06.85-.26v-1.18c0-.39-.3-.4-.85-.4h-8.8v-4.71h7.38"/><path class="cls-6" d="M123.1,95.18a1.42,1.42,0,0,0-1.19-.36h-2.82c-.52,0-.82,0-.82.42v13.5c0,.36.22.41.82.41h2.34c.63,0,.74-.12.74-.45V98.88l12.77,9.85a1.33,1.33,0,0,0,1,.42H138c.56,0,.78-.06.78-.41V95.23c0-.33-.15-.42-.74-.4h-2.34c-.59,0-.74.1-.74.4v9L123.1,95.18"/><path class="cls-6" d="M159.13,96.62c.67,0,.82-.12.82-.45v-1c0-.35-.3-.39-.82-.39h-16.3c-.56,0-.82.06-.82.42v1c0,.33.15.45.82.45h5.61v12c0,.4.22.46.89.49h3.38c.63,0,.78-.14.78-.49v-12h5.64"/><path class="cls-6" d="M163.15,108.72c0,.39.3.42.82.42h3.23c.71,0,.85-.12.85-.49v-5.11c0-.18,0-.52.78-.52a1.8,1.8,0,0,1,1.33.52l5.57,5.2c.38.35.45.39,1.22.41h3.75c.26,0,.74,0,.74-.28,0-.12-.15-.26-.29-.39l-7-6c2.6-.45,5.8-1.6,5.8-3.83,0-1.14-.78-2.25-2.42-3-2.23-1-5.5-1-7.69-1a50.81,50.81,0,0,0-6.13.3c-.52.1-.63.2-.63.67v13.08m4.92-12.42c.38,0,.89-.06,1.67-.06,1.45,0,5.27,0,5.27,2.74,0,1.89-2.3,2.62-4.53,2.76-.6,0-1,0-2.42,0V96.3Z"/><path class="cls-6" d="M189.64,95.24c0-.36-.22-.42-.78-.42h-3.53c-.67,0-.74.14-.78.42V108.7c0,.36.3.42.82.45h3.46c.48,0,.82-.06.82-.45V95.24"/><path class="cls-6" d="M207.27,108.73a1.32,1.32,0,0,0,1.19.41H212c.26,0,.71,0,.71-.28,0-.1-.11-.2-.23-.35l-7.31-7.23,6.24-5.86c.11-.12.22-.23.22-.35s-.45-.26-.67-.26h-2.56c-.67,0-.74,0-1.15.39l-4.2,4-4.08-4c-.37-.34-.52-.39-1.26-.39h-3.34c-.22,0-.14,0-.14.29,0,.08.07.16.19.28l5.78,6.41-6.6,6.72c-.26.22-.34.3-.34.39s.49.24.74.24h2a1.13,1.13,0,0,0,1.08-.41l5.16-4.79,5,4.79"/><path class="cls-2" d="M212.83,95h-.55v-.2h1.34V95h-.56v1.62h-.24V95Z"/><path class="cls-2" d="M215.35,95.83c0-.25,0-.56,0-.78h0c-.06.22-.14.44-.23.69l-.32.88h-.18l-.29-.87a6.12,6.12,0,0,1-.21-.71h0c0,.23,0,.53,0,.8l0,.78h-.23l.13-1.81h.3l.31.88a4.51,4.51,0,0,1,.18.61h0a5.81,5.81,0,0,1,.19-.61l.33-.88h.3l.11,1.81h-.23Z"/></g><path id="Path" class="cls-7" d="M463.17,50S431.72,94.62,431.28,95.1a29.42,29.42,0,0,1-20,10.69,28.92,28.92,0,0,1-21.56-7.25c-1.9-1.72-10.1-9.92-10.1-9.92s-8.32,8.26-10.19,9.89A28.65,28.65,0,0,1,329,96.44C328.55,96,296.15,50,296.15,50A28.86,28.86,0,0,1,340,12.82l9.53,9.53,9.59-9.53c11.8-11,27.83-11.4,39.32-1.54,1.15,1,11.07,10.87,11.07,10.87l9.53-9.53A29.05,29.05,0,0,1,463.17,50"/><path id="Shape" class="cls-2" d="M339.18,39l-2.26,8.66-2.26,8.66-2.79-8.45-3-8.87h-3.18l-3,8.87-2.51,8.41-2.05-8.66L315.93,39h-5l7.74,24.14h3.68l5.23-16.86L333,63.1h3.64L344.1,39h-4.91v0Zm20.49,16.18a7.61,7.61,0,0,0-7.1-8.16c-.21,0-.42,0-.67,0a8,8,0,0,0-8.2,7.85v.35a8.27,8.27,0,0,0,8.34,8.2h.32A11.06,11.06,0,0,0,359,61.33l-1.84-3.18a5.7,5.7,0,0,1-4.1,1.59,4.82,4.82,0,0,1-4.77-3.18h11.38S359.67,55.18,359.67,55.18Zm-7.74-4.55a3.25,3.25,0,0,1,3.43,3H348A3.66,3.66,0,0,1,351.93,50.63ZM372.18,47a6.25,6.25,0,0,0-4.77,2V38.54h-4.56V62.92h3.64l.21-2.05a7.23,7.23,0,0,0,5.48,2.51,7.78,7.78,0,0,0,7.74-7.81v-.39a7.82,7.82,0,0,0-7.39-8.2Zm-.92,12.29a4.1,4.1,0,1,1,0-8.2A3.91,3.91,0,0,1,375.15,55v.18a3.81,3.81,0,0,1-3.39,4.1Zm21-12.29a6.54,6.54,0,0,0-4.56,1.59v-10H383.1V62.92h4.56v-8.2a3.61,3.61,0,0,1,3.39-3.85h.25a3.48,3.48,0,0,1,3.43,3.53,1.14,1.14,0,0,1,0,.35v8.16h4.56V54.25A6.82,6.82,0,0,0,392.89,47C392.71,47,392.47,47,392.22,47Zm26.43,8.19a7.61,7.61,0,0,0-7.1-8.16c-.21,0-.42,0-.67,0a8,8,0,0,0-8.2,7.85v.35a8.27,8.27,0,0,0,8.34,8.2h.32A11.06,11.06,0,0,0,418,61.33l-1.84-3.18a5.7,5.7,0,0,1-4.1,1.59,4.82,4.82,0,0,1-4.77-3.18h11.63C418.44,56.53,418.65,55.86,418.65,55.18Zm-7.74-4.55a3.25,3.25,0,0,1,3.43,3h-7.28A3.49,3.49,0,0,1,410.91,50.63Zm10.92,12.51h4.56V38.75h-4.56Zm18-16.15a6.68,6.68,0,0,0-5.23,2.26l-.21-1.84h-3.89V70h4.56V61.58a6.25,6.25,0,0,0,4.77,2.05,7.61,7.61,0,0,0,7.53-7.74,2,2,0,0,0,0-.49A7.8,7.8,0,0,0,440.14,47Zm-.88,12.29a3.92,3.92,0,0,1-4.1-3.78v-.32a3.81,3.81,0,0,1,3.53-4.1h.57a4.1,4.1,0,1,1,0,8.2Z"/></g></g></svg>